<svg width="246" height="246" viewBox="0 0 246 246" fill="none" xmlns="http://www.w3.org/2000/svg">
<g id="Justice LOGO">
<path id="Star 1" d="M37.5611 122.942L80.2517 49L165.633 49L208.323 122.942L165.633 196.885L80.2517 196.885L37.5611 122.942Z" stroke="white" stroke-width="8"/>
<path id="Subtract" fill-rule="evenodd" clip-rule="evenodd" d="M109.352 159.523C108.152 155.923 112.519 153.69 114.852 153.023L117.352 102.523C113.752 99.3235 102.185 104.857 96.8521 108.023L109.352 133.023H112.852C109.352 157.15 68.3521 147.023 71.3521 136.523C67.7521 132.123 72.1854 131.69 74.8521 132.023L87.8521 108.023C70.6521 106.823 76.3521 96.0234 82.8521 96.0234C86.0521 98.8235 92.1854 98.8567 94.8521 98.5233C101.252 92.5233 115.519 92.0233 121.852 92.5233C102.352 76.0233 143.852 73.0234 128.852 92.5233C138.9 92.5233 144.252 94.7075 148.328 96.3708C152.973 98.2665 155.96 99.4856 162.352 96.0234C173.852 98.5233 167.852 106.523 160.852 108.023C160.852 108.023 165.852 121.523 172.352 130.523C173.945 132.729 174.959 134.347 175.591 135.449C166.998 158.846 131.916 148.481 133.852 132.023H137.852L150.352 108.023C146.352 109.223 136.352 104.857 131.852 102.523V153.023C135.052 153.023 137.185 157.357 137.852 159.523H145.352C154.952 165.923 151.352 167.523 148.352 167.523H96.8521C91.2521 168.323 96.5188 162.523 99.8521 159.523H109.352ZM175.591 135.449C175.874 134.678 176.129 133.869 176.352 133.023C176.09 135.342 176.451 136.848 176.54 137.222C176.554 137.281 176.562 137.311 176.559 137.312C176.556 137.314 176.54 137.28 176.508 137.21C176.409 136.992 176.148 136.422 175.591 135.449ZM91.8521 112.023L102.677 131.523H81.0268L91.8521 112.023ZM165.677 131.523L154.852 112.023L144.027 131.523H165.677Z" fill="white"/>
</g>
</svg>
