<svg width="246" height="246" viewBox="0 0 246 246" fill="none" xmlns="http://www.w3.org/2000/svg">
<g id="SItting LOGO">
<path id="Star 1" d="M37.5611 122.942L80.2517 49L165.633 49L208.323 122.942L165.633 196.885L80.2517 196.885L37.5611 122.942Z" stroke="white" stroke-width="8"/>
<g id="sitting">
<circle id="Ellipse 1" cx="110" cy="95" r="10" fill="white"/>
<circle id="Ellipse 2" cx="137" cy="95" r="10" fill="white"/>
<g id="Vector 3">
<path d="M102 99.4998C102.362 99.872 102.693 100.248 102.977 100.622C103.374 100.863 103.874 101.152 104.5 101.5C109 104 111.045 110.226 119.5 117C118.26 122.045 116.341 123.196 112 124L102 114.5C96 115.3 91.5 127.833 90 134H116L114.5 163.5C111.3 166.7 108.833 164.833 108 163.5V141H85C79.4 142.6 78.3333 138 78.5 135.5C88.9 105.1 98.5 102.5 102 105C104.648 104.215 104.375 102.457 102.977 100.622C100.517 99.1292 102 99.4998 102 99.4998Z" fill="white"/>
<path d="M90 151.5C94 165.5 84.6667 166 79.5 164.5V142.5H106V151.5H90Z" fill="white"/>
<path d="M149.5 101.5C147.5 97.4997 131.333 108.5 123.5 114.5C121.1 122.1 124.5 124 126.5 124L144.5 114.5C149.3 118.1 151.833 129 152.5 134H125L123.5 163.5C127.9 166.3 130 164.666 130.5 163.5V141H156.5C160.1 143.8 162 137.5 162.5 134C166.5 120 155.5 106.5 149.5 101.5Z" fill="white"/>
<path d="M118 132L116 163.5H122L123.5 132H142.5V125H99.5V132H118Z" fill="white"/>
<path d="M133.5 151.5V142.5H159.5V164.5C147.1 170.5 147.667 158.333 149.5 151.5H133.5Z" fill="white"/>
</g>
</g>
</g>
</svg>
